<?xml version="1.0" encoding="UTF-8"?><svg id="Layer_1" xmlns="http://www.w3.org/2000/svg" viewBox="0 0 656.19 232.48"><defs><style>.cls-1{fill:#fff;}.cls-2{fill:#0071bc;}</style></defs><g><path class="cls-2" d="M254.41,207.22c0,6.48-5.27,11.75-11.75,11.75-5.89,0-10.77-4.36-11.6-10.02l11.18-8.89c1.31-1.04,.72-3.57-.83-3.57h-24.63c-1.55,0-2.14,2.53-.83,3.57l11.18,8.89c-.84,5.66-5.71,10.02-11.6,10.02-6.48,0-11.75-5.27-11.75-11.75h-3.65c0,8.49,6.91,15.39,15.39,15.39,5.87,0,10.97-3.3,13.57-8.14,2.6,4.84,7.7,8.14,13.57,8.14,8.49,0,15.39-6.91,15.39-15.39h-3.65Z"/><path class="cls-2" d="M300.96,71.87l-4.31-.24s-.14,0-.41,0c-2.57,0-24.23,.93-27.02,31.87h-80.27c-2.79-30.94-24.45-31.87-27.02-31.87-.27,0-.41,0-.41,0l-4.36,.24V211.88c0,11.36,9.24,20.6,20.6,20.6h102.63c11.36,0,20.6-9.24,20.6-20.6V76.19l-.04-4.32Zm-4.52,20.36v119.65c0,8.86-7.18,16.04-16.04,16.04h-102.63c-8.86,0-16.04-7.18-16.04-16.04V76.19s21.97-.99,22.92,31.87h88.86c.96-32.85,22.92-31.87,22.92-31.87v16.04Z"/><path class="cls-2" d="M265.1,167.8c-7.74,0-14.03,6.29-14.03,14.03s6.29,14.03,14.03,14.03,14.03-6.29,14.03-14.03-6.29-14.03-14.03-14.03Zm0,23.5c-5.23,0-9.47-4.24-9.47-9.47s4.24-9.47,9.47-9.47,9.47,4.24,9.47,9.47-4.24,9.47-9.47,9.47Z"/><path class="cls-2" d="M189.16,151.36c-14.4,0-26.07,11.67-26.07,26.07s11.67,26.07,26.07,26.07,26.07-11.67,26.07-26.07-11.67-26.07-26.07-26.07Zm4.91,39.69c-5.23,0-9.47-4.24-9.47-9.47s4.24-9.47,9.47-9.47,9.47,4.24,9.47,9.47-4.24,9.47-9.47,9.47Z"/></g><path class="cls-1" d="M65.4,0h-15.13c-1.9,0-2.63,2.77-1.02,3.91l16.15,11.46L81.55,3.91c1.61-1.14,.88-3.91-1.02-3.91h-15.13Z"/><path class="cls-2" d="M111.66,103.5H32.16S0,73.61,0,73.61V210.9c0,11.9,9.68,21.58,21.58,21.58H122.25c11.9,0,21.58-9.68,21.58-21.58V73.61l-32.16,29.89ZM34.26,189.26c-5.23,0-9.47-4.24-9.47-9.47s4.24-9.47,9.47-9.47,9.47,4.24,9.47,9.47-4.24,9.47-9.47,9.47Zm51.04,31.31l-15-5.51-15,5.51-1.26-3.42,14.43-5.3v-4.68l-12.91-9.16c-1.46-1.04-.81-3.57,.93-3.57h27.6c1.74,0,2.4,2.53,.93,3.57l-12.91,9.16v4.68l14.43,5.3-1.26,3.42Zm24.26-31.31c-5.23,0-9.47-4.24-9.47-9.47s4.24-9.47,9.47-9.47,9.47,4.24,9.47,9.47-4.24,9.47-9.47,9.47Z"/><g><path class="cls-2" d="M324.46,153.05v-37.54h16.6c1.73,0,3.32,.35,4.79,1.06,1.46,.71,2.73,1.66,3.81,2.86,1.07,1.2,1.9,2.54,2.48,4.02,.58,1.48,.87,3,.87,4.55s-.27,3.11-.82,4.57c-.55,1.46-1.33,2.74-2.35,3.83-1.02,1.09-2.22,1.94-3.6,2.54l8.57,14.12h-8.04l-7.72-12.58h-7.3v12.58h-7.3Zm7.3-18.98h9.15c.92,0,1.73-.27,2.43-.82,.71-.55,1.27-1.28,1.69-2.19,.42-.92,.63-1.94,.63-3.07,0-1.2-.25-2.25-.74-3.15-.49-.9-1.12-1.61-1.88-2.14-.76-.53-1.58-.79-2.46-.79h-8.83v12.16Z"/><path class="cls-2" d="M370.83,153.57c-2.22,0-4.23-.38-6.03-1.12-1.8-.75-3.33-1.78-4.6-3.08-1.27-1.31-2.25-2.81-2.93-4.5s-1.03-3.48-1.03-5.36c0-2.61,.59-5,1.77-7.16,1.18-2.16,2.87-3.9,5.08-5.2s4.8-1.96,7.8-1.96,5.62,.65,7.77,1.96c2.15,1.31,3.8,3.04,4.94,5.19,1.14,2.15,1.72,4.46,1.72,6.94,0,.42-.02,.85-.05,1.28s-.07,.79-.11,1.07h-21.41c.14,1.38,.56,2.58,1.24,3.62,.69,1.03,1.57,1.82,2.64,2.35,1.07,.53,2.23,.8,3.46,.8,1.41,0,2.74-.34,3.99-1.03,1.25-.69,2.11-1.59,2.56-2.72l6.08,1.69c-.67,1.41-1.63,2.66-2.88,3.75s-2.72,1.95-4.42,2.56c-1.69,.62-3.56,.92-5.6,.92Zm-7.24-16.44h14.49c-.14-1.38-.54-2.58-1.19-3.59-.65-1.02-1.51-1.81-2.56-2.38-1.06-.57-2.24-.85-3.54-.85s-2.42,.28-3.46,.85c-1.04,.57-1.89,1.36-2.54,2.38-.65,1.02-1.05,2.21-1.19,3.59Z"/><path class="cls-2" d="M391.19,153.05v-20.83h-3.65v-5.39h3.65v-1.69c0-2.29,.38-4.27,1.14-5.95,.76-1.67,1.83-2.97,3.23-3.89,1.39-.92,3.02-1.37,4.89-1.37,1.13,0,2.26,.14,3.41,.42,1.15,.28,2.28,.69,3.41,1.22l-1.43,5.34c-.53-.28-1.15-.52-1.85-.71-.71-.19-1.38-.29-2.01-.29-1.2,0-2.11,.42-2.75,1.27-.63,.85-.95,2.08-.95,3.7v1.96h6.77v5.39h-6.77v20.83h-7.08Z"/><path class="cls-2" d="M408.79,142.78v-17.18h7.08v15.62c0,2.09,.39,3.67,1.16,4.73s1.92,1.59,3.44,1.59c.92,0,1.82-.18,2.72-.54,.9-.36,1.73-.91,2.49-1.63,.76-.72,1.4-1.64,1.93-2.75v-17.02h7.08v19.54c0,.73,.13,1.25,.4,1.57,.26,.31,.7,.5,1.29,.57v5.76c-.71,.11-1.29,.18-1.77,.24-.48,.05-.91,.08-1.3,.08-1.27,0-2.3-.29-3.09-.87-.79-.58-1.26-1.37-1.4-2.38l-.16-2.2c-1.23,1.85-2.82,3.26-4.76,4.22-1.94,.96-4.07,1.44-6.4,1.44-2.86,0-5.02-.92-6.5-2.75s-2.22-4.51-2.22-8.04Z"/><path class="cls-2" d="M452.57,153.57c-1.83,0-3.52-.36-5.05-1.08-1.53-.72-2.85-1.74-3.96-3.05-1.11-1.31-1.97-2.81-2.56-4.5-.6-1.7-.9-3.5-.9-5.4,0-2.01,.32-3.88,.95-5.61,.63-1.73,1.52-3.26,2.67-4.58s2.5-2.35,4.07-3.07,3.3-1.09,5.21-1.09c2.15,0,4.04,.48,5.66,1.43,1.62,.95,2.96,2.24,4.02,3.86v-4.86h6.19v26.21c0,2.73-.66,5.07-1.98,7.01-1.32,1.94-3.15,3.43-5.47,4.46-2.33,1.03-4.97,1.55-7.93,1.55s-5.53-.5-7.61-1.51c-2.08-1-3.86-2.42-5.34-4.26l3.86-3.75c1.06,1.3,2.39,2.33,3.99,3.07,1.6,.74,3.3,1.11,5.1,1.11,1.52,0,2.9-.26,4.15-.77,1.25-.51,2.25-1.31,3.01-2.39,.76-1.08,1.14-2.49,1.14-4.24v-3.49c-.92,1.59-2.21,2.81-3.89,3.67-1.67,.86-3.45,1.29-5.31,1.29Zm2.38-5.66c.78,0,1.52-.12,2.22-.37s1.36-.58,1.96-1.01c.6-.42,1.13-.93,1.59-1.51,.46-.58,.81-1.18,1.06-1.78v-6.63c-.42-1.1-1.01-2.05-1.77-2.86-.76-.81-1.6-1.44-2.54-1.88-.93-.44-1.91-.66-2.93-.66-1.09,0-2.08,.23-2.96,.69-.88,.46-1.64,1.1-2.27,1.94s-1.12,1.75-1.45,2.76-.5,2.06-.5,3.16,.19,2.19,.58,3.18c.39,.99,.93,1.86,1.61,2.6s1.5,1.33,2.43,1.75c.93,.42,1.93,.64,2.99,.64Z"/><path class="cls-2" d="M475.26,121.48v-7.03h7.08v7.03h-7.08Zm0,31.57v-27.71h7.08v27.71h-7.08Z"/><path class="cls-2" d="M501.53,153.57c-2.26,0-4.28-.38-6.08-1.12-1.8-.75-3.32-1.79-4.57-3.11-1.25-1.32-2.21-2.84-2.88-4.55-.67-1.71-1-3.5-1-5.39s.33-3.73,1-5.44c.67-1.71,1.63-3.22,2.88-4.55,1.25-1.32,2.78-2.36,4.57-3.11,1.8-.75,3.82-1.12,6.08-1.12s4.27,.38,6.05,1.12c1.78,.75,3.3,1.79,4.57,3.11,1.27,1.33,2.23,2.84,2.88,4.55,.65,1.71,.98,3.52,.98,5.44s-.33,3.68-.98,5.39c-.65,1.71-1.6,3.22-2.86,4.55-1.25,1.33-2.78,2.36-4.57,3.11-1.8,.75-3.83,1.12-6.08,1.12Zm-7.24-14.17c0,1.59,.32,3,.95,4.23,.63,1.23,1.5,2.19,2.59,2.88s2.33,1.04,3.7,1.04,2.56-.35,3.65-1.06c1.09-.71,1.96-1.68,2.62-2.9,.65-1.23,.98-2.64,.98-4.23s-.33-2.96-.98-4.2c-.65-1.24-1.53-2.21-2.62-2.9-1.09-.69-2.31-1.04-3.65-1.04s-2.61,.35-3.7,1.06c-1.09,.71-1.96,1.68-2.59,2.9-.63,1.23-.95,2.64-.95,4.23Z"/><path class="cls-2" d="M324.46,213.05v-37.54h13.64c4.09,0,7.51,.84,10.26,2.51,2.75,1.67,4.81,3.93,6.19,6.77,1.37,2.84,2.06,5.98,2.06,9.44,0,3.81-.76,7.12-2.27,9.94s-3.66,5.01-6.42,6.56c-2.77,1.55-6.04,2.33-9.81,2.33h-13.64Zm24.8-18.82c0-2.43-.44-4.57-1.32-6.42-.88-1.85-2.15-3.3-3.81-4.34-1.66-1.04-3.67-1.56-6.03-1.56h-6.34v24.74h6.34c2.4,0,4.42-.54,6.08-1.61,1.66-1.07,2.92-2.55,3.78-4.44,.86-1.88,1.29-4.01,1.29-6.37Z"/><path class="cls-2" d="M374.42,213.57c-2.26,0-4.28-.38-6.08-1.12-1.8-.75-3.32-1.79-4.57-3.11-1.25-1.32-2.21-2.84-2.88-4.55-.67-1.71-1-3.5-1-5.39s.33-3.73,1-5.44c.67-1.71,1.63-3.22,2.88-4.55,1.25-1.32,2.78-2.36,4.57-3.11,1.8-.75,3.82-1.12,6.08-1.12s4.27,.38,6.05,1.12c1.78,.75,3.3,1.79,4.57,3.11,1.27,1.33,2.23,2.84,2.88,4.55,.65,1.71,.98,3.52,.98,5.44s-.33,3.68-.98,5.39c-.65,1.71-1.6,3.22-2.86,4.55-1.25,1.33-2.78,2.36-4.57,3.11-1.8,.75-3.83,1.12-6.08,1.12Zm-7.24-14.17c0,1.59,.32,3,.95,4.23,.63,1.23,1.5,2.19,2.59,2.88s2.33,1.04,3.7,1.04,2.56-.35,3.65-1.06c1.09-.71,1.96-1.68,2.62-2.9,.65-1.23,.98-2.64,.98-4.23s-.33-2.96-.98-4.2c-.65-1.24-1.53-2.21-2.62-2.9-1.09-.69-2.31-1.04-3.65-1.04s-2.61,.35-3.7,1.06c-1.09,.71-1.96,1.68-2.59,2.9-.63,1.23-.95,2.64-.95,4.23Z"/><path class="cls-2" d="M419.42,213.05h-7.08v-15.32c0-2.19-.39-3.79-1.16-4.79-.78-1.01-1.85-1.51-3.23-1.51-.95,0-1.91,.24-2.88,.72s-1.84,1.14-2.62,1.99c-.78,.84-1.34,1.82-1.69,2.92v16h-7.08v-27.44h6.4v5.12c.71-1.18,1.6-2.19,2.7-3.01,1.09-.82,2.35-1.45,3.78-1.88,1.43-.44,2.93-.65,4.52-.65,1.73,0,3.15,.31,4.26,.92s1.96,1.43,2.54,2.46c.58,1.03,.99,2.19,1.22,3.48,.23,1.29,.34,2.6,.34,3.92v17.09Z"/><path class="cls-2" d="M465.52,181.9h-12v31.14h-7.24v-31.14h-12v-6.4h31.25v6.4Z"/><path class="cls-2" d="M477.05,213.57c-2.26,0-4.28-.38-6.08-1.12-1.8-.75-3.32-1.79-4.57-3.11-1.25-1.32-2.21-2.84-2.88-4.55-.67-1.71-1-3.5-1-5.39s.33-3.73,1-5.44c.67-1.71,1.63-3.22,2.88-4.55,1.25-1.32,2.78-2.36,4.57-3.11,1.8-.75,3.82-1.12,6.08-1.12s4.27,.38,6.05,1.12c1.78,.75,3.3,1.79,4.57,3.11,1.27,1.33,2.23,2.84,2.88,4.55,.65,1.71,.98,3.52,.98,5.44s-.33,3.68-.98,5.39c-.65,1.71-1.6,3.22-2.86,4.55-1.25,1.33-2.78,2.36-4.57,3.11-1.8,.75-3.83,1.12-6.08,1.12Zm-7.24-14.17c0,1.59,.32,3,.95,4.23,.63,1.23,1.5,2.19,2.59,2.88s2.33,1.04,3.7,1.04,2.56-.35,3.65-1.06c1.09-.71,1.96-1.68,2.62-2.9,.65-1.23,.98-2.64,.98-4.23s-.33-2.96-.98-4.2c-.65-1.24-1.53-2.21-2.62-2.9-1.09-.69-2.31-1.04-3.65-1.04s-2.61,.35-3.7,1.06c-1.09,.71-1.96,1.68-2.59,2.9-.63,1.23-.95,2.64-.95,4.23Z"/><path class="cls-2" d="M512.79,191.47c-2.15,0-4.07,.41-5.76,1.24-1.69,.83-2.91,2.02-3.65,3.57v16.76h-7.08v-27.44h6.5v5.66c.99-1.9,2.24-3.4,3.75-4.49s3.12-1.69,4.81-1.8h.9c.21,0,.39,.02,.53,.05v6.45Z"/><path class="cls-2" d="M529.29,213.57c-2.26,0-4.28-.38-6.08-1.12-1.8-.75-3.33-1.8-4.6-3.14-1.27-1.34-2.25-2.87-2.93-4.58-.69-1.71-1.03-3.5-1.03-5.39,0-2.58,.59-4.94,1.77-7.08,1.18-2.14,2.86-3.86,5.05-5.15s4.78-1.93,7.77-1.93,5.57,.65,7.72,1.96c2.15,1.3,3.75,3.01,4.81,5.13l-6.93,2.11c-.6-1.02-1.39-1.81-2.38-2.35-.99-.55-2.08-.82-3.28-.82-1.34,0-2.56,.34-3.67,1.01-1.11,.67-1.98,1.62-2.62,2.85-.63,1.23-.95,2.66-.95,4.28s.33,3,.98,4.23c.65,1.23,1.52,2.19,2.62,2.9s2.31,1.06,3.65,1.06c.85,0,1.65-.14,2.41-.42,.76-.28,1.44-.67,2.04-1.16,.6-.49,1.04-1.06,1.32-1.69l6.93,2.12c-.63,1.37-1.56,2.61-2.78,3.7s-2.64,1.95-4.28,2.56c-1.64,.62-3.48,.92-5.53,.92Z"/><path class="cls-2" d="M545.94,202.78v-17.18h7.08v15.62c0,2.09,.39,3.67,1.16,4.73s1.92,1.59,3.44,1.59c.92,0,1.82-.18,2.72-.54,.9-.36,1.73-.91,2.49-1.63,.76-.72,1.4-1.64,1.93-2.75v-17.02h7.08v19.54c0,.73,.13,1.25,.4,1.57,.26,.31,.7,.5,1.29,.57v5.76c-.71,.11-1.29,.18-1.77,.24-.48,.05-.91,.08-1.3,.08-1.27,0-2.3-.29-3.09-.87-.79-.58-1.26-1.37-1.4-2.38l-.16-2.2c-1.23,1.85-2.82,3.26-4.76,4.22-1.94,.96-4.07,1.44-6.4,1.44-2.86,0-5.02-.92-6.5-2.75s-2.22-4.51-2.22-8.04Z"/><path class="cls-2" d="M576.98,204.95c0-1.78,.5-3.33,1.51-4.67,1-1.34,2.41-2.38,4.2-3.11,1.8-.73,3.86-1.1,6.19-1.1,1.16,0,2.34,.09,3.54,.26s2.24,.46,3.12,.85v-1.47c0-1.73-.52-3.06-1.56-4-1.04-.93-2.58-1.4-4.63-1.4-1.52,0-2.96,.26-4.34,.79-1.37,.53-2.82,1.3-4.33,2.33l-2.27-4.65c1.83-1.2,3.71-2.1,5.63-2.7,1.92-.6,3.94-.9,6.05-.9,3.95,0,7.02,.97,9.23,2.92,2.2,1.95,3.3,4.73,3.3,8.34v8.71c0,.73,.13,1.25,.4,1.56,.26,.31,.7,.5,1.29,.57v5.76c-.63,.11-1.21,.19-1.72,.26-.51,.07-.94,.11-1.3,.11-1.41,0-2.48-.32-3.2-.95-.72-.63-1.17-1.41-1.35-2.33l-.16-1.43c-1.2,1.55-2.7,2.75-4.49,3.6-1.8,.85-3.63,1.27-5.5,1.27s-3.48-.38-4.94-1.12-2.61-1.78-3.44-3.08c-.83-1.31-1.24-2.78-1.24-4.42Zm17.24,1.38c.39-.41,.71-.83,.95-1.24,.25-.41,.37-.79,.37-1.13v-2.73c-.85-.34-1.76-.61-2.75-.8-.99-.19-1.92-.28-2.8-.28-1.83,0-3.34,.39-4.52,1.16s-1.77,1.8-1.77,3.07c0,.69,.19,1.34,.58,1.96s.95,1.12,1.69,1.5c.74,.38,1.62,.57,2.64,.57s2.1-.2,3.12-.59c1.02-.4,1.85-.88,2.49-1.47Z"/><path class="cls-2" d="M625.57,211.67c-.6,.25-1.32,.53-2.17,.85-.85,.32-1.75,.57-2.72,.77s-1.95,.29-2.93,.29c-1.3,0-2.5-.23-3.59-.68-1.09-.45-1.97-1.18-2.62-2.17-.65-.99-.98-2.29-.98-3.9v-15.77h-3.65v-5.45h3.65v-8.99h7.08v8.99h5.82v5.45h-5.82v13.36c.04,.94,.3,1.62,.79,2.03,.49,.42,1.11,.63,1.85,.63s1.46-.12,2.17-.37c.71-.25,1.27-.46,1.69-.63l1.43,5.6Z"/><path class="cls-2" d="M641.7,213.57c-2.26,0-4.28-.38-6.08-1.12-1.8-.75-3.32-1.79-4.57-3.11-1.25-1.32-2.21-2.84-2.88-4.55-.67-1.71-1-3.5-1-5.39s.33-3.73,1-5.44c.67-1.71,1.63-3.22,2.88-4.55,1.25-1.32,2.78-2.36,4.57-3.11,1.8-.75,3.82-1.12,6.08-1.12s4.27,.38,6.05,1.12c1.78,.75,3.3,1.79,4.57,3.11,1.27,1.33,2.23,2.84,2.88,4.55,.65,1.71,.98,3.52,.98,5.44s-.33,3.68-.98,5.39c-.65,1.71-1.6,3.22-2.86,4.55-1.25,1.33-2.78,2.36-4.57,3.11-1.8,.75-3.83,1.12-6.08,1.12Zm-7.24-14.17c0,1.59,.32,3,.95,4.23,.63,1.23,1.5,2.19,2.59,2.88s2.33,1.04,3.7,1.04,2.56-.35,3.65-1.06c1.09-.71,1.96-1.68,2.62-2.9,.65-1.23,.98-2.64,.98-4.23s-.33-2.96-.98-4.2c-.65-1.24-1.53-2.21-2.62-2.9-1.09-.69-2.31-1.04-3.65-1.04s-2.61,.35-3.7,1.06c-1.09,.71-1.96,1.68-2.59,2.9-.63,1.23-.95,2.64-.95,4.23Z"/></g></svg>